HIERARCHY
ROOT joint_Root
{
	OFFSET 0.0 0.0 0.0
	CHANNELS 6 Xposition Yposition Zposition Zrotation Xrotation Yrotation 
	JOINT Hips
	{
		OFFSET 4.5925 91.4895 -427.239
		CHANNELS 6 Xposition Yposition Zposition Zrotation Xrotation Yrotation 
		JOINT Spine
		{
			OFFSET 15.7357 0.0 0.0
			CHANNELS 6 Xposition Yposition Zposition Zrotation Xrotation Yrotation 
			JOINT Chest
			{
				OFFSET 8.98455 -0.406207 0.0
				CHANNELS 6 Xposition Yposition Zposition Zrotation Xrotation Yrotation 
				JOINT Neck
				{
					OFFSET 16.3773 0.0 0.0
					CHANNELS 6 Xposition Yposition Zposition Zrotation Xrotation Yrotation 
					JOINT Head
					{
						OFFSET 6.45672 0.0 0.0
						CHANNELS 6 Xposition Yposition Zposition Zrotation Xrotation Yrotation 
						End Site
						{
							OFFSET 0.0 0.0 0.0
						}
					}
				}
				JOINT Shoulder_L
				{
					OFFSET 12.9942 -0.242716 4.98039
					CHANNELS 6 Xposition Yposition Zposition Zrotation Xrotation Yrotation 
					JOINT UpperArm_L
					{
						OFFSET 5.34809 0.0 0.0
						CHANNELS 6 Xposition Yposition Zposition Zrotation Xrotation Yrotation 
						JOINT LowerArm_L
						{
							OFFSET 24.3286 1.87007e-05 0.0
							CHANNELS 6 Xposition Yposition Zposition Zrotation Xrotation Yrotation 
							JOINT Hand_L
							{
								OFFSET 22.2916 0.0 0.0
								CHANNELS 6 Xposition Yposition Zposition Zrotation Xrotation Yrotation 
								End Site
								{
									OFFSET 0.0 0.0 0.0
								}
							}
						}
					}
				}
				JOINT Shoulder_R
				{
					OFFSET 12.9945 -0.242716 -4.98039
					CHANNELS 6 Xposition Yposition Zposition Zrotation Xrotation Yrotation 
					JOINT UpperArm_R
					{
						OFFSET -5.34813 0.0 0.0
						CHANNELS 6 Xposition Yposition Zposition Zrotation Xrotation Yrotation 
						JOINT LowerArm_R
						{
							OFFSET -24.3289 0.000322201 0.0
							CHANNELS 6 Xposition Yposition Zposition Zrotation Xrotation Yrotation 
							JOINT Hand_R
							{
								OFFSET -22.2915 -0.000108084 0.0
								CHANNELS 6 Xposition Yposition Zposition Zrotation Xrotation Yrotation 
								End Site
								{
									OFFSET 0.0 0.0 0.0
								}
							}
						}
					}
				}
			}
		}
		JOINT UpperLeg_L
		{
			OFFSET -2.19248 -6.46944 0.0
			CHANNELS 6 Xposition Yposition Zposition Zrotation Xrotation Yrotation 
			JOINT LowerLeg_L
			{
				OFFSET 39.0811 0.0 -1.23785e-05
				CHANNELS 6 Xposition Yposition Zposition Zrotation Xrotation Yrotation 
				JOINT Foot_L
				{
					OFFSET 40.9854 0.0 -1.26872e-05
					CHANNELS 6 Xposition Yposition Zposition Zrotation Xrotation Yrotation 
					JOINT Toes_L
					{
						OFFSET 11.7543 0.0 0.0
						CHANNELS 6 Xposition Yposition Zposition Zrotation Xrotation Yrotation 
						End Site
						{
							OFFSET 0.0 0.0 0.0
						}
					}
				}
			}
		}
		JOINT UpperLeg_R
		{
			OFFSET -2.19251 6.46944 0.0
			CHANNELS 6 Xposition Yposition Zposition Zrotation Xrotation Yrotation 
			JOINT LowerLeg_R
			{
				OFFSET -39.0811 -0.00228153 -0.0401928
				CHANNELS 6 Xposition Yposition Zposition Zrotation Xrotation Yrotation 
				JOINT Foot_R
				{
					OFFSET -40.9854 0.0 0.0
					CHANNELS 6 Xposition Yposition Zposition Zrotation Xrotation Yrotation 
					JOINT Toes_R
					{
						OFFSET -11.7543 0.0 0.0
						CHANNELS 6 Xposition Yposition Zposition Zrotation Xrotation Yrotation 
						End Site
						{
							OFFSET 0.0 0.0 0.0
						}
					}
				}
			}
		}
	}
}
MOTION
Frames:	9
Frame Time:	0.0333333
0.000000 0.000000 0.000000 0.000000 0.000000 -0.000000 -1.973470 90.563500 0.747901 91.287900 -2.125040 7.017490 15.735700 0.000005 -0.000001 89.954400 84.063400 -83.560800 8.984550 -0.406207 -0.000000 4.151100 -0.209451 12.780400 16.377300 -0.000001 -0.000001 9.795500 -6.625830 4.315990 6.456720 -0.000001 -0.000000 4.854760 -8.062130 6.646970 12.994200 -0.242716 4.980390 -87.901000 -5.186060 -67.927100 5.348090 -0.000007 -0.000001 -39.086500 -46.035700 -40.474000 24.328600 0.000019 0.000005 -2.982370 -5.735700 -27.529300 22.291600 -0.000001 0.000005 17.570600 4.965810 8.077400 12.994500 -0.242716 -4.980390 87.667100 7.443990 -72.544500 -5.348130 -0.000001 -0.000004 -50.238000 -3.676750 -0.707422 -24.328900 0.000322 -0.000009 -7.272040 -15.959100 -24.893100 -22.291500 -0.000108 -0.000004 24.294500 5.508310 -6.872300 -2.192480 -6.469440 -0.000000 -173.991000 -17.468000 -1.011840 39.081100 -0.000007 -0.000012 -0.180320 0.316507 29.671200 40.985400 -0.000006 -0.000013 0.261754 11.903300 -70.798200 11.754300 -0.000000 0.000003 -0.000084 -0.000885 -16.611600 -2.192510 6.469440 -0.000001 173.748000 18.901000 178.618000 -39.081100 -0.002282 -0.040193 -0.184373 0.305296 31.580100 -40.985400 0.000008 0.000006 4.587900 11.899000 -73.382400 -11.754300 -0.000006 -0.000006 -0.680253 -0.859890 -16.045600
0.000000 0.000000 0.000000 0.000000 0.000000 -0.000000 -2.021780 90.521500 0.663169 91.190600 -2.567430 7.014540 15.735700 0.000005 -0.000001 90.921700 84.005000 -84.446000 8.984550 -0.406207 -0.000000 4.255620 -0.004074 12.936800 16.377300 -0.000001 -0.000001 9.366540 -7.041810 5.126630 6.456720 -0.000001 -0.000000 4.735780 -8.805370 6.473370 12.994200 -0.242716 4.980390 -88.217600 -4.268960 -67.311900 5.348090 -0.000007 -0.000001 -46.836700 -44.460400 -40.607500 24.328600 0.000019 0.000005 0.849439 1.708880 -26.453400 22.291600 -0.000001 0.000005 16.864800 4.916630 9.037500 12.994500 -0.242716 -4.980390 87.808500 7.042980 -72.667300 -5.348130 -0.000001 -0.000004 -51.513200 -3.714920 -0.510397 -24.328900 0.000322 -0.000009 -6.827480 -15.491400 -24.141700 -22.291500 -0.000108 -0.000004 23.908400 5.495800 -6.364070 -2.192480 -6.469440 -0.000000 -173.792000 -17.880600 -1.149690 39.081100 -0.000007 -0.000012 -0.186633 0.323576 29.975900 40.985400 -0.000006 -0.000013 0.247159 11.889500 -70.907500 11.754300 -0.000000 0.000003 -0.000080 -0.000847 -16.610200 -2.192510 6.469440 -0.000001 173.769000 18.852800 178.458000 -39.081100 -0.002282 -0.040193 -0.229016 0.376496 31.676800 -40.985400 0.000008 0.000006 3.893440 12.489800 -73.166500 -11.754300 -0.000006 -0.000006 -0.195684 -0.247809 -16.437200
0.000000 0.000000 0.000000 0.000000 0.000000 -0.000000 -2.199950 90.451100 0.593359 91.114900 -2.536910 7.262170 15.735700 0.000005 -0.000001 93.542800 83.894000 -87.291200 8.984550 -0.406207 -0.000000 4.422210 0.572511 12.467000 16.377300 -0.000001 -0.000001 8.989720 -7.331430 4.589120 6.456720 -0.000001 -0.000000 4.575200 -9.254060 6.263580 12.994200 -0.242716 4.980390 -88.069700 -4.546120 -66.963900 5.348090 -0.000007 -0.000001 -50.537500 -44.395600 -45.211500 24.328600 0.000019 0.000005 0.208080 0.437419 -25.441700 22.291600 -0.000001 0.000005 18.024900 4.868920 9.992270 12.994500 -0.242716 -4.980390 87.877800 6.832960 -72.700500 -5.348130 -0.000001 -0.000004 -52.979200 -2.688100 0.503965 -24.328900 0.000322 -0.000009 -6.708440 -15.821100 -23.333500 -22.291500 -0.000108 -0.000004 23.546900 5.497010 -6.413690 -2.192480 -6.469440 -0.000000 -173.537000 -17.694900 -1.135010 39.081100 -0.000007 -0.000012 -0.196156 0.334682 30.374800 40.985400 -0.000006 -0.000013 0.138135 11.840900 -71.037300 11.754300 -0.000000 0.000003 -0.000083 -0.000882 -16.611500 -2.192510 6.469440 -0.000001 173.944000 18.713800 178.509000 -39.081100 -0.002282 -0.040193 -0.235223 0.381430 32.019400 -40.985400 0.000008 0.000006 4.014100 12.258800 -73.341600 -11.754300 -0.000006 -0.000006 -0.194440 -0.246230 -16.438200
0.000000 0.000000 0.000000 0.000000 0.000000 -0.000000 -2.485200 90.409200 0.550865 91.010200 -1.933700 7.446100 15.735700 0.000005 -0.000001 94.652700 83.842100 -88.685400 8.984550 -0.406207 -0.000000 4.494320 0.828291 11.888700 16.377300 -0.000001 -0.000001 9.001330 -7.011450 3.279270 6.456720 -0.000001 -0.000000 4.526200 -9.138510 5.671790 12.994200 -0.242716 4.980390 -87.730600 -5.240100 -66.543400 5.348090 -0.000007 -0.000001 -52.468700 -46.944500 -53.911000 24.328600 0.000019 0.000005 -0.435392 -0.828129 -27.692200 22.291600 -0.000001 0.000005 18.849300 4.910170 9.176520 12.994500 -0.242716 -4.980390 87.831700 6.923080 -72.561900 -5.348130 -0.000001 -0.000004 -53.643400 -0.836419 0.971024 -24.328900 0.000322 -0.000009 -6.024100 -15.217400 -21.897800 -22.291500 -0.000108 -0.000004 22.832000 5.491340 -6.187600 -2.192480 -6.469440 -0.000000 -173.308000 -16.948500 -1.229540 39.081100 -0.000007 -0.000012 -0.197555 0.333614 30.632900 40.985400 -0.000006 -0.000013 -0.049877 11.842400 -71.032500 11.754300 -0.000000 0.000003 -0.000085 -0.000894 -16.612000 -2.192510 6.469440 -0.000001 174.287000 18.967600 178.646000 -39.081100 -0.002282 -0.040193 -0.196720 0.316914 32.257900 -40.985400 0.000008 0.000006 4.803480 11.604700 -73.688400 -11.754300 -0.000006 -0.000006 -0.574885 -0.727305 -16.130400
0.000000 0.000000 0.000000 0.000000 0.000000 -0.000000 -2.736200 90.422300 0.591295 90.658700 -1.301360 7.605730 15.735700 0.000005 -0.000001 94.665800 83.880600 -88.956200 8.984550 -0.406207 -0.000000 4.416930 0.828208 11.374200 16.377300 -0.000001 -0.000001 9.654620 -6.547010 1.977490 6.456720 -0.000001 -0.000000 4.712320 -8.886520 5.514280 12.994200 -0.242716 4.980390 -87.065300 -6.576100 -65.885900 5.348090 -0.000007 -0.000001 -48.499000 -50.445800 -61.288500 24.328600 0.000019 0.000005 -2.005540 -3.186560 -32.172500 22.291600 -0.000001 0.000005 19.123500 4.983970 7.658950 12.994500 -0.242716 -4.980390 87.788100 7.040710 -72.510300 -5.348130 -0.000001 -0.000004 -53.907600 -0.167911 1.460490 -24.328900 0.000322 -0.000009 -5.279120 -14.040100 -20.846300 -22.291500 -0.000108 -0.000004 21.951800 5.489300 -6.110360 -2.192480 -6.469440 -0.000000 -172.836000 -16.180300 -1.185370 39.081100 -0.000007 -0.000012 -0.201223 0.339004 30.692500 40.985400 -0.000006 -0.000013 -0.240523 11.869300 -70.996200 11.754300 -0.000000 0.000003 -0.000089 -0.000928 -16.613300 -2.192510 6.469440 -0.000001 174.646000 19.833600 179.155000 -39.081100 -0.002282 -0.040193 -0.159691 0.261208 31.963500 -40.985400 0.000008 0.000006 5.448050 11.614900 -73.812600 -11.754300 -0.000006 -0.000006 -0.824939 -1.043040 -15.929600
0.000000 0.000000 0.000000 0.000000 0.000000 -0.000000 -2.885050 90.517900 0.673437 90.117400 -1.298520 7.604520 15.735700 0.000005 -0.000001 95.196400 83.901100 -89.703300 8.984550 -0.406207 -0.000000 4.360780 0.940767 10.937900 16.377300 -0.000001 -0.000001 10.292500 -6.215810 0.688668 6.456720 -0.000001 -0.000000 4.928650 -8.950000 5.808230 12.994200 -0.242716 4.980390 -85.963100 -8.478540 -64.424500 5.348090 -0.000007 -0.000001 -45.552700 -56.639700 -70.121800 24.328600 0.000019 0.000005 -4.275990 -5.362550 -38.642800 22.291600 -0.000001 0.000005 19.927900 5.057840 6.068360 12.994500 -0.242716 -4.980390 87.784100 7.082280 -72.576600 -5.348130 -0.000001 -0.000004 -54.023500 -0.648131 1.704370 -24.328900 0.000322 -0.000009 -5.362440 -14.501500 -20.545300 -22.291500 -0.000108 -0.000004 22.095500 5.486610 -6.003870 -2.192480 -6.469440 -0.000000 -172.269000 -15.670600 -1.004010 39.081100 -0.000007 -0.000012 -0.204115 0.347969 30.395700 40.985400 -0.000006 -0.000013 -0.502451 11.503300 -70.873300 11.754300 -0.000000 0.000003 -0.000088 -0.000918 -16.612900 -2.192510 6.469440 -0.000001 175.266000 20.189200 179.675000 -39.081100 -0.002282 -0.040193 -0.127447 0.216407 31.139200 -40.985400 0.000008 0.000006 5.957700 11.716100 -73.617300 -11.754300 -0.000006 -0.000006 -0.915585 -1.153420 -15.857400
0.000000 0.000000 0.000000 0.000000 0.000000 -0.000000 -2.864720 90.669700 0.682621 89.715200 -1.968710 7.113830 15.735700 0.000005 -0.000001 95.886700 83.987300 -90.665100 8.984550 -0.406207 -0.000000 4.169260 1.068460 10.392600 16.377300 -0.000001 -0.000001 10.720100 -5.807580 -0.607750 6.456720 -0.000001 -0.000000 5.103200 -9.130650 6.845660 12.994200 -0.242716 4.980390 -84.576700 -10.427500 -62.323500 5.348090 -0.000007 -0.000001 -46.970300 -65.042500 -82.220000 24.328600 0.000019 0.000005 -5.896030 -5.732630 -45.948200 22.291600 -0.000001 0.000005 21.081000 5.113960 4.799890 12.994500 -0.242716 -4.980390 87.794500 7.142430 -72.789700 -5.348130 -0.000001 -0.000004 -53.855000 -1.246660 1.546620 -24.328900 0.000322 -0.000009 -5.591420 -15.002500 -20.712700 -22.291500 -0.000108 -0.000004 22.742000 5.486530 -6.000450 -2.192480 -6.469440 -0.000000 -172.087000 -15.600100 -1.107260 39.081100 -0.000007 -0.000012 -0.198297 0.346458 29.785100 40.985400 -0.000006 -0.000013 -0.743159 10.786600 -70.624300 11.754300 -0.000000 0.000003 -0.000080 -0.000848 -16.610200 -2.192510 6.469440 -0.000001 175.885000 19.985300 179.564000 -39.081100 -0.002282 -0.040193 -0.110378 0.195472 30.180700 -40.985400 0.000008 0.000006 6.229280 12.092100 -73.174400 -11.754300 -0.000006 -0.000006 -0.853832 -1.071390 -15.906700
0.000000 0.000000 0.000000 0.000000 0.000000 -0.000000 -2.696850 90.826600 0.631439 89.483800 -2.991620 6.528890 15.735700 0.000005 -0.000001 96.078100 84.019800 -91.133200 8.984550 -0.406207 -0.000000 4.099220 1.107060 9.839240 16.377300 -0.000001 -0.000001 10.729200 -5.430330 -1.774960 6.456720 -0.000001 -0.000000 5.395120 -9.374350 8.263190 12.994200 -0.242716 4.980390 -83.362900 -11.782300 -60.324500 5.348090 -0.000007 -0.000001 -56.184600 -73.933400 -101.366000 24.328600 0.000019 0.000005 -6.218090 -5.181580 -50.349600 22.291600 -0.000001 0.000005 22.407600 5.195440 2.838830 12.994500 -0.242716 -4.980390 87.914300 6.939790 -73.226600 -5.348130 -0.000001 -0.000004 -53.923600 -2.129110 1.192530 -24.328900 0.000322 -0.000009 -5.767400 -14.870400 -21.479400 -22.291500 -0.000108 -0.000004 23.489500 5.489370 -6.110850 -2.192480 -6.469440 -0.000000 -172.129000 -16.037600 -1.224940 39.081100 -0.000007 -0.000012 -0.186014 0.334303 29.092900 40.985400 -0.000006 -0.000013 -0.856476 10.140300 -70.344800 11.754300 -0.000000 0.000003 -0.000074 -0.000791 -16.608100 -2.192510 6.469440 -0.000001 176.201000 19.932200 179.213000 -39.081100 -0.002282 -0.040193 -0.092360 0.170100 29.353400 -40.985400 0.000008 0.000006 6.461130 12.976000 -72.709100 -11.754300 -0.000006 -0.000006 -0.843450 -1.057670 -15.914900
0.000000 0.000000 0.000000 0.000000 0.000000 -0.000000 -2.393570 90.930400 0.521743 89.471800 -3.869250 5.996630 15.735700 0.000005 -0.000001 97.109700 84.110800 -92.225800 8.984550 -0.406207 -0.000000 3.886370 1.291160 9.713280 16.377300 -0.000001 -0.000001 10.814100 -4.928930 -3.144360 6.456720 -0.000001 -0.000000 5.569910 -10.011100 9.111180 12.994200 -0.242716 4.980390 -82.349500 -12.317400 -57.802700 5.348090 -0.000007 -0.000001 -89.154300 -69.556800 -139.610000 24.328600 0.000019 0.000005 -2.292370 -1.787650 -52.085000 22.291600 -0.000001 0.000005 24.067700 5.259090 1.210150 12.994500 -0.242716 -4.980390 88.152200 6.242010 -73.474100 -5.348130 -0.000001 -0.000004 -54.130700 -3.638240 1.391890 -24.328900 0.000322 -0.000009 -6.116010 -14.453600 -23.230600 -22.291500 -0.000108 -0.000004 24.192500 5.495220 -6.341450 -2.192480 -6.469440 -0.000000 -172.489000 -16.523100 -1.499210 39.081100 -0.000007 -0.000012 -0.181014 0.331346 28.648100 40.985400 -0.000006 -0.000013 -0.809491 9.569900 -70.153400 11.754300 -0.000000 0.000003 -0.000074 -0.000794 -16.608200 -2.192510 6.469440 -0.000001 176.216000 19.760200 178.638000 -39.081100 -0.002282 -0.040193 -0.082609 0.155226 28.963100 -40.985400 0.000008 0.000006 6.475230 13.709400 -72.350900 -11.754300 -0.000006 -0.000006 -0.792713 -0.990860 -15.955200
